<?xml version="1.0" encoding="iso-8859-1"?>
<!-- Uploaded to: SVG Repo, www.svgrepo.com, Generator: SVG Repo Mixer Tools -->
<svg fill="#000000" height="800px" width="800px" version="1.1" id="Layer_1" xmlns="http://www.w3.org/2000/svg" xmlns:xlink="http://www.w3.org/1999/xlink" 
	 viewBox="0 0 512 512" xml:space="preserve">
<path d="M481.51,101.007c6.974,6.975,18.283,6.976,25.258,0c6.975-6.975,6.975-18.283,0-25.258L436.25,5.231
	c-6.974-6.975-18.283-6.975-25.258,0s-6.975,18.283,0,25.258l22.63,22.63l-36.195,36.195L326.732,18.62
	c-6.974-6.975-18.283-6.975-25.258,0s-6.975,18.283,0,25.258l18.169,18.169L279.85,101.84l49.091,49.091
	c6.975,6.975,6.975,18.283,0,25.258c-6.974,6.975-18.283,6.976-25.258,0l-49.091-49.091l-27.619,27.619l49.091,49.091
	c6.975,6.975,6.975,18.283,0,25.258c-6.974,6.975-18.283,6.976-25.258,0l-49.091-49.091l-52.42,52.422
	c-6.975,6.975-6.975,18.283,0,25.258l105.053,105.053c6.97,6.972,18.286,6.974,25.258,0L449.953,192.36l18.17,18.17
	c6.974,6.975,18.283,6.976,25.258,0c6.975-6.975,6.975-18.283,0-25.258l-70.697-70.699l36.195-36.195L481.51,101.007z"/>
<path d="M117.761,298.463c-6.975,6.974-6.975,18.283,0,25.258l22.63,22.63L5.231,481.51c-6.975,6.974-6.975,18.283,0,25.258
	c6.974,6.975,18.283,6.975,25.258,0L165.648,371.61l22.629,22.63c6.97,6.972,18.286,6.974,25.258,0l10.914-10.914l-95.776-95.776
	L117.761,298.463z"/>
</svg>